# xmcd CD database file
#
# Track frame offsets:
#	150
#	19805
#	39645
#	58347
#	76662
#	97495
#	118085
#	131525
#	149042
#	171790
#
# Disc length: 2603 seconds
#
# Revision: 0
# Processed by: cddbd v1.5PL3 Copyright (c) Steve Scherf et al.
# Submitted via: CDex 1.51
#
DISCID=930a290a
DTITLE=Jazz Joint Jump - Jazz Joint jump
DYEAR=1999
DGENRE=Jazz
TTITLE0=Jazz Joint Jump
TTITLE1=One Leg Two Leg
TTITLE2=Welcome To The Shake and rumble
TTITLE3=Nobody Quite As Hip
TTITLE4=the best Of Life
TTITLE5=Little Growl
TTITLE6=Hippo-Party-Mess
TTITLE7=Coati the Mundi
TTITLE8=More Than Meets the eye
TTITLE9=Lonliest Monkey
EXTD=YEAR: 1999
EXTT0=
EXTT1=
EXTT2=
EXTT3=
EXTT4=
EXTT5=
EXTT6=
EXTT7=
EXTT8=
EXTT9=
PLAYORDER=
